<?xml version="1.0" encoding="UTF-8"?>
<svg width="700pt" height="700pt" version="1.1" viewBox="0 0 700 700" xmlns="http://www.w3.org/2000/svg" xmlns:xlink="http://www.w3.org/1999/xlink">
 <defs>
  <symbol id="v" overflow="visible">
   <path d="m0.28125-0.015625c-0.023438 0.011719-0.042969 0.015625-0.0625 0.015625h-0.046875c-0.042969 0-0.078125-0.0078125-0.10938-0.03125-0.03125-0.03125-0.046875-0.066406-0.046875-0.10938 0-0.050781 0.015625-0.09375 0.046875-0.125s0.066406-0.046875 0.10938-0.046875c0.019531 0 0.035156 0.007812 0.046875 0.015625 0.019531 0 0.039062 0.007813 0.0625 0.015625v0.0625c-0.023438-0.007812-0.039062-0.015625-0.046875-0.015625-0.011719-0.007813-0.027344-0.015625-0.046875-0.015625-0.03125 0-0.054688 0.011719-0.0625 0.03125-0.011719 0.011719-0.015625 0.039062-0.015625 0.078125 0 0.023437 0.003906 0.042969 0.015625 0.0625 0.007812 0.023438 0.03125 0.03125 0.0625 0.03125h0.046875c0.007813-0.0078125 0.023437-0.019531 0.046875-0.03125z"/>
  </symbol>
  <symbol id="c" overflow="visible">
   <path d="m0.20312-0.15625c-0.011719-0.007812-0.023437-0.015625-0.03125-0.015625-0.023437 0-0.039063 0.007813-0.046875 0.015625-0.011719 0.011719-0.015625 0.027344-0.015625 0.046875v0.10938h-0.078125v-0.21875h0.078125v0.03125c0.007813-0.019531 0.019531-0.03125 0.03125-0.03125 0.007813-0.007812 0.019531-0.015625 0.03125-0.015625h0.015625 0.015625z"/>
  </symbol>
  <symbol id="a" overflow="visible">
   <path d="m0.25-0.10938v0.015625h-0.15625c0 0.023438 0.0039062 0.039062 0.015625 0.046875h0.046875 0.03125c0.019531-0.0078125 0.039062-0.019531 0.0625-0.03125v0.0625c-0.023438 0.011719-0.042969 0.015625-0.0625 0.015625h-0.046875c-0.042969 0-0.074219-0.0078125-0.09375-0.03125-0.023438-0.019531-0.03125-0.046875-0.03125-0.078125 0-0.039063 0.0078125-0.070313 0.03125-0.09375 0.019531-0.019531 0.050781-0.03125 0.09375-0.03125 0.03125 0 0.054687 0.011719 0.078125 0.03125 0.019531 0.023437 0.03125 0.054687 0.03125 0.09375zm-0.0625-0.03125c0-0.007813-0.007812-0.015625-0.015625-0.015625-0.011719-0.007812-0.023437-0.015625-0.03125-0.015625-0.011719 0-0.023437 0.007813-0.03125 0.015625-0.011719 0-0.015625 0.007812-0.015625 0.015625z"/>
  </symbol>
  <symbol id="j" overflow="visible">
   <path d="m0.14062-0.10938c-0.023437 0-0.039063 0.007813-0.046875 0.015625v0.015625 0.03125h0.03125c0.007812 0 0.019531-0.0039062 0.03125-0.015625 0.007812-0.0078125 0.015625-0.019531 0.015625-0.03125v-0.015625zm0.10938-0.015625v0.125h-0.078125v-0.03125c-0.011719 0.011719-0.023437 0.023438-0.03125 0.03125h-0.046875c-0.023438 0-0.042969-0.0039062-0.0625-0.015625-0.011719-0.0078125-0.015625-0.03125-0.015625-0.0625 0-0.019531 0.0078125-0.035156 0.03125-0.046875 0.019531-0.007812 0.046875-0.015625 0.078125-0.015625h0.046875c0-0.019531-0.007813-0.03125-0.015625-0.03125h-0.046875-0.046875-0.03125v-0.046875h0.046875c0.019531-0.007812 0.035156-0.015625 0.046875-0.015625 0.039062 0 0.070312 0.011719 0.09375 0.03125 0.019531 0.023437 0.03125 0.046875 0.03125 0.078125z"/>
  </symbol>
  <symbol id="b" overflow="visible">
   <path d="m0.10938-0.28125v0.0625h0.078125v0.046875h-0.078125v0.09375 0.03125h0.03125 0.03125v0.046875h-0.046875c-0.03125 0-0.058594-0.0039062-0.078125-0.015625-0.011719-0.0078125-0.015625-0.03125-0.015625-0.0625v-0.09375h-0.03125v-0.046875h0.03125v-0.0625z"/>
  </symbol>
  <symbol id="i" overflow="visible">
   <path d="m0.1875-0.1875v-0.125h0.0625v0.3125h-0.0625v-0.03125c-0.011719 0.011719-0.023438 0.023438-0.03125 0.03125h-0.046875c-0.023438 0-0.042969-0.0078125-0.0625-0.03125-0.023438-0.019531-0.03125-0.046875-0.03125-0.078125 0-0.039063 0.0078125-0.070313 0.03125-0.09375 0.019531-0.019531 0.039062-0.03125 0.0625-0.03125 0.019531 0 0.035156 0.007813 0.046875 0.015625 0.007812 0 0.019531 0.011719 0.03125 0.03125zm-0.046875 0.14062c0.007813 0 0.019531-0.0039062 0.03125-0.015625 0.007813-0.0078125 0.015625-0.023438 0.015625-0.046875 0-0.019531-0.007812-0.035156-0.015625-0.046875-0.011719-0.007812-0.023437-0.015625-0.03125-0.015625-0.023437 0-0.039063 0.007813-0.046875 0.015625v0.046875 0.046875c0.007812 0.011719 0.023438 0.015625 0.046875 0.015625z"/>
  </symbol>
  <symbol id="h" overflow="visible">
   <path d="m0.15625-0.046875c0.007812 0 0.019531-0.0039062 0.03125-0.015625 0.007812-0.0078125 0.015625-0.023438 0.015625-0.046875 0-0.019531-0.007813-0.035156-0.015625-0.046875-0.011719-0.007812-0.023438-0.015625-0.03125-0.015625-0.023438 0-0.039062 0.007813-0.046875 0.015625v0.046875 0.046875c0.007813 0.011719 0.023437 0.015625 0.046875 0.015625zm-0.046875-0.14062c0.007813-0.019531 0.019531-0.03125 0.03125-0.03125 0.007813-0.007812 0.019531-0.015625 0.03125-0.015625 0.03125 0 0.054687 0.011719 0.078125 0.03125 0.019531 0.023437 0.03125 0.054687 0.03125 0.09375 0 0.03125-0.011719 0.058594-0.03125 0.078125-0.023438 0.023438-0.046875 0.03125-0.078125 0.03125h-0.03125c-0.011719-0.0078125-0.023437-0.019531-0.03125-0.03125v0.03125h-0.078125v-0.3125h0.078125z"/>
  </symbol>
  <symbol id="g" overflow="visible">
   <path d="m0-0.21875h0.078125l0.0625 0.14062 0.046875-0.14062h0.078125l-0.09375 0.23438c-0.011719 0.03125-0.027344 0.050781-0.046875 0.0625-0.011719 0.0078125-0.027344 0.015625-0.046875 0.015625h-0.046875v-0.0625h0.03125 0.015625c0.0078125 0 0.019531-0.0078125 0.03125-0.015625v-0.015625z"/>
  </symbol>
  <symbol id="e" overflow="visible">
   <path d="m0.03125-0.29688h0.078125v0.29688h-0.078125z"/>
  </symbol>
  <symbol id="u" overflow="visible">
   <path d="m0-0.29688h0.078125l0.0625 0.10938 0.078125-0.10938h0.078125l-0.10938 0.17188v0.125h-0.078125v-0.125z"/>
  </symbol>
  <symbol id="t" overflow="visible">
   <path d="m0.03125-0.29688h0.078125v0.10938l0.10938-0.10938h0.09375l-0.14062 0.14062 0.15625 0.15625h-0.09375l-0.125-0.10938v0.10938h-0.078125z"/>
  </symbol>
  <symbol id="s" overflow="visible">
   <path d="m0.17188-0.25c-0.023437 0-0.039063 0.011719-0.046875 0.03125-0.011719 0.011719-0.015625 0.039062-0.015625 0.078125 0 0.023437 0.003906 0.042969 0.015625 0.0625 0.007812 0.023438 0.023438 0.03125 0.046875 0.03125 0.03125 0 0.050781-0.0078125 0.0625-0.03125 0.007813-0.019531 0.015625-0.039063 0.015625-0.0625 0-0.039063-0.007812-0.066406-0.015625-0.078125-0.011719-0.019531-0.03125-0.03125-0.0625-0.03125zm0-0.0625c0.050781 0 0.085937 0.015625 0.10938 0.046875 0.03125 0.03125 0.046875 0.074219 0.046875 0.125 0 0.042969-0.015625 0.078125-0.046875 0.10938-0.023438 0.023438-0.058594 0.03125-0.10938 0.03125-0.042969 0-0.078125-0.0078125-0.10938-0.03125-0.03125-0.03125-0.046875-0.066406-0.046875-0.10938 0-0.050781 0.015625-0.09375 0.046875-0.125s0.066406-0.046875 0.10938-0.046875z"/>
  </symbol>
  <symbol id="f" overflow="visible">
   <path d="m0.03125-0.29688h0.09375l0.10938 0.20312v-0.20312h0.078125v0.29688h-0.09375l-0.10938-0.20312v0.20312h-0.078125z"/>
  </symbol>
  <symbol id="r" overflow="visible">
   <path d="m0.17188-0.3125v0.046875h-0.03125c-0.011719 0-0.023437 0.007813-0.03125 0.015625v0.015625 0.015625h0.0625v0.046875h-0.0625v0.17188h-0.0625v-0.17188h-0.046875v-0.046875h0.046875v-0.015625c0-0.03125 0.0039062-0.050781 0.015625-0.0625 0.0078125-0.007813 0.03125-0.015625 0.0625-0.015625z"/>
  </symbol>
  <symbol id="d" overflow="visible">
   <path d="m0.14062-0.17188c-0.023437 0-0.039063 0.007813-0.046875 0.015625v0.046875 0.046875c0.007812 0.011719 0.023438 0.015625 0.046875 0.015625 0.019531 0 0.03125-0.0039062 0.03125-0.015625 0.007813-0.0078125 0.015625-0.023438 0.015625-0.046875 0-0.019531-0.007812-0.035156-0.015625-0.046875 0-0.007812-0.011719-0.015625-0.03125-0.015625zm0-0.0625c0.039063 0 0.070313 0.011719 0.09375 0.03125 0.019531 0.023437 0.03125 0.054687 0.03125 0.09375 0 0.03125-0.011719 0.058594-0.03125 0.078125-0.023437 0.023438-0.054687 0.03125-0.09375 0.03125-0.042969 0-0.074219-0.0078125-0.09375-0.03125-0.023438-0.019531-0.03125-0.046875-0.03125-0.078125 0-0.039063 0.0078125-0.070313 0.03125-0.09375 0.019531-0.019531 0.050781-0.03125 0.09375-0.03125z"/>
  </symbol>
  <symbol id="q" overflow="visible">
   <path d="m0.25-0.1875c0-0.007812 0.003906-0.019531 0.015625-0.03125 0.019531-0.007812 0.035156-0.015625 0.046875-0.015625 0.03125 0 0.050781 0.011719 0.0625 0.03125 0.007812 0.023437 0.015625 0.042969 0.015625 0.0625v0.14062h-0.0625v-0.10938-0.015625c0-0.019531-0.007813-0.03125-0.015625-0.03125 0-0.007812-0.007812-0.015625-0.015625-0.015625-0.011719 0-0.023437 0.007813-0.03125 0.015625-0.011719 0.011719-0.015625 0.027344-0.015625 0.046875v0.10938h-0.078125v-0.10938-0.046875c0-0.007812-0.011719-0.015625-0.03125-0.015625-0.011719 0-0.023437 0.007813-0.03125 0.015625v0.046875 0.10938h-0.078125v-0.21875h0.078125v0.03125c0.007813-0.019531 0.019531-0.03125 0.03125-0.03125 0.007813-0.007812 0.019531-0.015625 0.03125-0.015625 0.019531 0 0.035156 0.007813 0.046875 0.015625 0.007812 0.011719 0.019531 0.023438 0.03125 0.03125z"/>
  </symbol>
  <symbol id="p" overflow="visible">
   <path d="m0.26562-0.14062v0.14062h-0.078125v-0.10938-0.03125c0-0.007813-0.007812-0.015625-0.015625-0.015625v-0.015625h-0.015625c-0.011719 0-0.023438 0.007813-0.03125 0.015625-0.011719 0.011719-0.015625 0.027344-0.015625 0.046875v0.10938h-0.078125v-0.3125h0.078125v0.125c0.007813-0.019531 0.019531-0.03125 0.03125-0.03125 0.007813-0.007812 0.019531-0.015625 0.03125-0.015625 0.03125 0 0.050781 0.011719 0.0625 0.03125 0.019531 0.023437 0.03125 0.042969 0.03125 0.0625z"/>
  </symbol>
  <symbol id="o" overflow="visible">
   <path d="m0.03125-0.09375v-0.125h0.078125v0.015625 0.046875 0.03125 0.046875 0.015625 0.015625h0.03125c0.007813 0 0.019531-0.0039062 0.03125-0.015625 0.007813-0.0078125 0.015625-0.023438 0.015625-0.046875v-0.10938h0.0625v0.21875h-0.0625v-0.03125c-0.011719 0.011719-0.023438 0.023438-0.03125 0.03125h-0.046875c-0.023438 0-0.042969-0.0039062-0.0625-0.015625-0.011719-0.019531-0.015625-0.046875-0.015625-0.078125z"/>
  </symbol>
  <symbol id="n" overflow="visible">
   <path d="m0.26562-0.14062v0.14062h-0.078125v-0.10938-0.03125c0-0.007813-0.007812-0.015625-0.015625-0.015625v-0.015625h-0.015625c-0.011719 0-0.023438 0.007813-0.03125 0.015625-0.011719 0.011719-0.015625 0.027344-0.015625 0.046875v0.10938h-0.078125v-0.21875h0.078125v0.03125c0.007813-0.019531 0.019531-0.03125 0.03125-0.03125 0.007813-0.007812 0.019531-0.015625 0.03125-0.015625 0.03125 0 0.050781 0.011719 0.0625 0.03125 0.019531 0.023437 0.03125 0.042969 0.03125 0.0625z"/>
  </symbol>
  <symbol id="m" overflow="visible">
   <path d="m0.03125-0.29688h0.14062c0.03125 0 0.054687 0.011719 0.078125 0.03125 0.019531 0.011719 0.03125 0.03125 0.03125 0.0625s-0.011719 0.058594-0.03125 0.078125c-0.023438 0.011719-0.046875 0.015625-0.078125 0.015625h-0.0625v0.10938h-0.078125zm0.078125 0.046875v0.09375h0.046875 0.03125c0.007812-0.007812 0.015625-0.023438 0.015625-0.046875 0-0.007813-0.007813-0.019531-0.015625-0.03125-0.011719-0.007813-0.023438-0.015625-0.03125-0.015625z"/>
  </symbol>
  <symbol id="l" overflow="visible">
   <path d="m0.03125-0.21875h0.078125v0.21875c0 0.019531-0.011719 0.039062-0.03125 0.0625-0.011719 0.019531-0.03125 0.03125-0.0625 0.03125h-0.03125v-0.0625h0.015625 0.015625c0.0078125 0 0.015625-0.011719 0.015625-0.03125zm0-0.09375h0.078125v0.0625h-0.078125z"/>
  </symbol>
  <symbol id="k" overflow="visible">
   <path d="m0.21875-0.21875v0.0625c-0.011719-0.007812-0.023438-0.015625-0.03125-0.015625h-0.03125c-0.023438 0-0.039062 0.007813-0.046875 0.015625-0.011719 0.011719-0.015625 0.027344-0.015625 0.046875 0 0.023438 0.0039062 0.039062 0.015625 0.046875 0.007813 0.011719 0.023437 0.015625 0.046875 0.015625h0.03125c0.007812-0.0078125 0.019531-0.015625 0.03125-0.015625v0.0625h-0.03125-0.046875c-0.042969 0-0.074219-0.0078125-0.09375-0.03125-0.023438-0.019531-0.03125-0.046875-0.03125-0.078125 0-0.039063 0.0078125-0.070313 0.03125-0.09375 0.019531-0.019531 0.050781-0.03125 0.09375-0.03125 0.019531 0 0.035156 0.007813 0.046875 0.015625h0.03125z"/>
  </symbol>
 </defs>
 <g>
  <path d="m248.66 303.83h227.21c16.406 0 32.074-6.3164 43.801-17.883 11.566-11.402 18.047-26.824 18.047-43.062 0-16.242-6.4805-31.664-18.047-43.062-11.648-11.566-27.398-17.883-43.801-17.883-3.6094 0-7.2188 0.32812-10.746 0.90234-3.4453 0.57422-6.8906 1.4766-10.254 2.707-0.82031 0.32812-1.7227 0.32812-2.543 0-1.6406-0.65625-2.4609-2.4609-1.9688-4.0195l0.16406-0.32812c1.9688-4.7578 3.4453-9.7617 4.4297-14.848 0.98438-5.0859 1.4766-10.336 1.4766-15.504 0-21.574-8.6133-41.914-23.953-57.09-15.504-15.258-36.176-23.625-57.91-23.625-18.703 0-36.75 6.2344-51.348 17.883-14.438 11.484-25.02 27.398-28.629 45.605-0.16406 0.73828-0.49219 1.3945-0.98438 1.8867-0.73828 0.73828-1.6406 1.0664-2.707 0.90234-0.49219-0.082031-1.1484-0.24609-1.6406-0.49219l-0.49219-0.49219c-3.6914-3.8555-8.2031-6.9727-13.125-9.0234-4.9219-2.1328-10.254-3.1172-15.668-3.1172-10.5 0-20.59 4.0195-28.055 11.402-7.3828 7.3008-11.566 17.145-11.566 27.562 0 3.6094 0.65625 6.7266 1.7227 10.172 0.57422 1.8867 1.5586 4.2656 1.6406 6.1523 0.082031 0.98438-1.0664 2.707-2.0508 3.5273l-1.1484 0.082032c-15.75 0.82031-30.598 7.6289-41.504 19.031-10.828 11.32-16.898 26.168-16.898 41.832 0 16.242 6.4805 31.664 18.047 43.062 11.156 10.992 26.004 17.801 41.832 17.801h26.496z" fill-rule="evenodd"/>
  <path d="m436.41 364.28c-4.0195 6.9727-7.957 14.027-11.895 21.082-4.3477 7.793-8.6133 15.586-12.551 23.543-1.4766 2.9531-2.8711 5.9062-4.1016 8.9414-0.98438 2.543-2.0508 5.5781-1.4766 8.2852 0.90234 4.0195 4.2656 6.6445 7.793 8.2031 2.707 1.1484 6.3164 2.1328 9.2695 1.5586l16.734-3.6094-21.492 38.145c-3.5273 6.3164-1.3125 14.355 5.0039 17.883 6.3164 3.5273 14.355 1.3125 17.883-5.0039l35.766-63.57c0.41016-0.73828 0.65625-1.4766 0.82031-2.2969 0.082031-0.32812 0.082031-0.57422 0.082031-0.82031 0-0.57422 0.082031-1.1484 0.082031-1.7227 0-1.5586-0.16406-3.1992-0.49219-4.7578-0.73828-3.3633-2.2969-6.4805-5.4141-8.2852-3.1992-1.8047-7.793-1.3945-11.402-0.90234-4.2656 0.57422-8.4492 1.3945-12.633 2.2969-1.2305 0.24609-2.4609 0.57422-3.7734 0.82031l21.902-40.027c3.4453-6.3984 1.1484-14.355-5.25-17.801-6.3984-3.4453-14.355-1.1484-17.801 5.25-2.3789 4.3477-4.8398 8.6133-7.3008 12.879z" fill-rule="evenodd"/>
  <path d="m346.93 404.07 21.902-40.027c3.4453-6.3984 1.1484-14.355-5.25-17.801-6.3984-3.4453-14.355-1.1484-17.801 5.25l-35.684 65.129c-1.6406 2.9531-2.2969 6.2344-1.6406 9.5977 1.5586 7.0547 8.5312 11.648 15.668 10.09l18.211-3.9375-21.492 38.145c-3.5273 6.3164-1.3125 14.355 5.0039 17.883 6.3164 3.5273 14.355 1.3125 17.883-5.0039l35.848-63.57c0.41016-0.73828 0.65625-1.4766 0.82031-2.2969 0.082031-0.32813 0.082031-0.57422 0.082031-0.82031 0-0.57422 0.082032-1.1484 0.082032-1.7227 0-1.5586-0.16406-3.1992-0.49219-4.7578-0.73828-3.3633-2.2969-6.4805-5.4141-8.2852-3.1992-1.8047-7.793-1.3945-11.402-0.90234-4.2656 0.57422-8.4492 1.3945-12.633 2.2969-1.2305 0.24609-2.4609 0.57422-3.7734 0.82031z" fill-rule="evenodd"/>
  <path d="m248.82 404.48 22.148-40.438c3.4453-6.3984 1.1484-14.355-5.25-17.801-6.3984-3.4453-14.355-1.1484-17.801 5.25l-35.684 65.129c-1.6406 2.9531-2.2969 6.2344-1.6406 9.5977 1.5586 7.0547 8.5312 11.648 15.668 10.09l18.211-3.9375-21.492 38.145c-3.5273 6.3164-1.3125 14.355 5.0039 17.883 6.3164 3.5273 14.355 1.3125 17.883-5.0039l35.848-63.57c0.41016-0.73828 0.65625-1.4766 0.82031-2.2969 0.082032-0.32813 0.082032-0.57422 0.082032-0.82031 0-0.57422 0.082031-1.1484 0.082031-1.7227 0-1.5586-0.16406-3.1992-0.49219-4.7578-0.73828-3.3633-2.2969-6.4805-5.4141-8.2852-2.8711-1.6406-6.2344-2.0508-9.5156-1.3125l-18.457 4.0195z" fill-rule="evenodd"/>
  <use x="70" y="561.230469" xlink:href="#v"/>
  <use x="70.300781" y="561.230469" xlink:href="#c"/>
  <use x="70.503906" y="561.230469" xlink:href="#a"/>
  <use x="70.78125" y="561.230469" xlink:href="#j"/>
  <use x="71.058594" y="561.230469" xlink:href="#b"/>
  <use x="71.253906" y="561.230469" xlink:href="#a"/>
  <use x="71.53125" y="561.230469" xlink:href="#i"/>
  <use x="71.96875" y="561.230469" xlink:href="#h"/>
  <use x="72.261719" y="561.230469" xlink:href="#g"/>
  <use x="72.671875" y="561.230469" xlink:href="#e"/>
  <use x="72.824219" y="561.230469" xlink:href="#u"/>
  <use x="73.121094" y="561.230469" xlink:href="#e"/>
  <use x="73.273438" y="561.230469" xlink:href="#t"/>
  <use x="73.59375" y="561.230469" xlink:href="#s"/>
  <use x="73.941406" y="561.230469" xlink:href="#f"/>
  <use x="70" y="561.640625" xlink:href="#r"/>
  <use x="70.179688" y="561.640625" xlink:href="#c"/>
  <use x="70.378906" y="561.640625" xlink:href="#d"/>
  <use x="70.664062" y="561.640625" xlink:href="#q"/>
  <use x="71.234375" y="561.640625" xlink:href="#b"/>
  <use x="71.429688" y="561.640625" xlink:href="#p"/>
  <use x="71.71875" y="561.640625" xlink:href="#a"/>
  <use x="72.140625" y="561.640625" xlink:href="#f"/>
  <use x="72.484375" y="561.640625" xlink:href="#d"/>
  <use x="72.765625" y="561.640625" xlink:href="#o"/>
  <use x="73.058594" y="561.640625" xlink:href="#n"/>
  <use x="73.492188" y="561.640625" xlink:href="#m"/>
  <use x="73.792969" y="561.640625" xlink:href="#c"/>
  <use x="73.996094" y="561.640625" xlink:href="#d"/>
  <use x="74.277344" y="561.640625" xlink:href="#l"/>
  <use x="74.417969" y="561.640625" xlink:href="#a"/>
  <use x="74.695312" y="561.640625" xlink:href="#k"/>
  <use x="74.941406" y="561.640625" xlink:href="#b"/>
 </g>
</svg>
